<svg width="33" height="32" viewBox="0 0 33 32" fill="none" xmlns="http://www.w3.org/2000/svg">
<path d="M23.2314 8.93187H23.7824C24.0962 8.93187 24.3662 8.68332 24.3646 8.36947C24.363 8.05355 24.1039 7.81299 23.7875 7.81299H8.63069C8.31684 7.81299 8.04687 8.06154 8.04847 8.37539C8.05007 8.69131 8.30917 8.93187 8.62558 8.93187H9.18238C9.7005 8.93187 9.96936 9.54238 9.62586 9.93024C8.61774 11.0684 8.00252 12.5368 8.00252 14.1582V14.1579C8.00252 17.6574 10.8658 20.5203 14.3654 20.5203H18.0479C21.5475 20.5203 24.4108 17.657 24.4108 14.1575V14.1535C24.4108 12.5325 23.7959 11.0671 22.7882 9.9304C22.4444 9.54262 22.7131 8.93187 23.2314 8.93187Z" fill="#F4B490"/>
<path d="M21.5408 32H10.8725C10.529 32 10.1951 31.8867 9.92243 31.6778C9.64981 31.4688 9.45369 31.1758 9.36444 30.8441L7.32847 23.2785C6.93031 21.799 8.19369 20.4025 9.70546 20.6509L13.1428 21.2157C15.1717 21.5491 17.2415 21.5491 19.2705 21.2157L22.7078 20.6509C24.2196 20.4025 25.4829 21.799 25.0848 23.2785L23.0488 30.8441C22.9595 31.1758 22.7634 31.4688 22.4908 31.6778C22.2182 31.8867 21.8843 32 21.5408 32Z" fill="#EA825E"/>
<path d="M19.184 30.8239H13.2291L12.7189 28.6862C12.4669 27.6302 13.2675 26.6161 14.3531 26.6161H18.06C19.1456 26.6161 19.9462 27.6303 19.6942 28.6862L19.184 30.8239Z" fill="#2D2C3B"/>
<path d="M13.5989 0C12.7623 0.133067 11.9941 0.637444 11.5559 1.43793C11.1618 2.15801 11.1146 2.97359 11.3555 3.69527C11.2724 3.97529 11.245 4.26889 11.2749 4.55945C10.8548 4.05213 10.3017 3.6719 9.67757 3.46143C8.58993 3.09347 7.44891 3.28105 6.561 3.87054C6.90865 4.87801 7.70146 5.71973 8.78909 6.08769C9.82414 6.43782 10.907 6.28405 11.7745 5.76049C11.9277 5.95822 12.1219 6.15706 12.3696 6.3519L12.5329 6.14427C11.4469 5.28984 11.4576 4.38563 11.5662 3.91114C12.3556 3.75058 13.0719 3.25771 13.4889 2.49575C13.927 1.69527 13.9376 0.776266 13.5989 0Z" fill="#378F5D"/>
<path d="M20.8981 6.8021C20.3858 5.43411 19.4215 4.29812 18.1843 3.56613C18.0499 3.48661 18.0001 3.31494 18.0782 3.1798C18.1446 3.06438 18.1862 2.93635 18.2003 2.80393C18.2395 2.44909 18.0818 2.1095 17.7834 1.91354C17.2495 1.56301 16.562 1.81732 16.3574 2.37955C16.3392 2.42936 16.3253 2.48061 16.3158 2.53276C16.3026 2.60731 16.2604 2.67361 16.1985 2.71722C16.1366 2.76084 16.0599 2.77824 15.9853 2.76565C14.5669 2.53108 13.0981 2.78155 11.8263 3.50012C11.6542 3.59738 11.6753 3.85169 11.861 3.9193L20.602 7.10093C20.7878 7.16854 20.9674 6.98728 20.8981 6.8021Z" fill="#F4B490"/>
<path d="M14.3405 7.19541C13.8716 7.19541 13.4914 6.81531 13.4914 6.34634C13.4914 5.87744 13.8715 5.49726 14.3405 5.49726C14.8094 5.49726 15.1896 5.87736 15.1896 6.34634C15.1896 6.81531 14.8095 7.19541 14.3405 7.19541ZM8.24956 1.96695C7.78066 1.96695 7.40048 1.58684 7.40048 1.11787C7.40048 0.64898 7.78058 0.268799 8.24956 0.268799C8.71845 0.268799 9.09863 0.6489 9.09863 1.11787C9.09863 1.58676 8.71845 1.96695 8.24956 1.96695Z" fill="#6DCC96"/>
<path d="M23.0797 30.6702H9.31761L9.36436 30.8441C9.37036 30.8664 9.37811 30.888 9.38506 30.9099H23.0281C23.035 30.888 23.0428 30.8664 23.0488 30.8441L23.0797 30.7291V30.6702Z" fill="#895654"/>
<path d="M23.1596 8.93716V8.93188H15.9269C15.8951 8.93188 15.8646 8.94451 15.8421 8.967C15.8196 8.98948 15.807 9.01997 15.807 9.05177C15.807 9.08356 15.8196 9.11405 15.8421 9.13653C15.8646 9.15902 15.8951 9.17165 15.9269 9.17165H22.7541C22.8017 9.10649 22.8623 9.05198 22.9321 9.0116C23.002 8.97123 23.0795 8.94587 23.1596 8.93716Z" fill="#C66F58"/>
</svg>
